<mxfile host="Electron" agent="Mozilla/5.0 (Windows NT 10.0; Win64; x64) AppleWebKit/537.36 (KHTML, like Gecko) draw.io/24.7.17 Chrome/128.0.6613.36 Electron/32.0.1 Safari/537.36" version="24.7.17">
  <diagram name="Page-1" id="_ZzkEdzZPlF0T37kGrCl">
    <mxGraphModel dx="1034" dy="1577" grid="1" gridSize="10" guides="1" tooltips="1" connect="1" arrows="1" fold="1" page="1" pageScale="1" pageWidth="850" pageHeight="1100" math="0" shadow="0">
      <root>
        <mxCell id="0" />
        <mxCell id="1" parent="0" />
        <mxCell id="SBEox3NDaokPfLYJbtWu-15" value="" style="rounded=0;whiteSpace=wrap;html=1;" vertex="1" parent="1">
          <mxGeometry x="20" width="810" height="470" as="geometry" />
        </mxCell>
        <mxCell id="SBEox3NDaokPfLYJbtWu-2" value="Storage Account" style="image;aspect=fixed;html=1;points=[];align=center;fontSize=12;image=img/lib/azure2/storage/Storage_Accounts.svg;" vertex="1" parent="1">
          <mxGeometry x="240" y="136" width="75" height="60" as="geometry" />
        </mxCell>
        <mxCell id="SBEox3NDaokPfLYJbtWu-5" style="edgeStyle=orthogonalEdgeStyle;rounded=0;orthogonalLoop=1;jettySize=auto;html=1;entryX=0;entryY=0.278;entryDx=0;entryDy=0;entryPerimeter=0;" edge="1" parent="1" source="SBEox3NDaokPfLYJbtWu-1" target="SBEox3NDaokPfLYJbtWu-2">
          <mxGeometry relative="1" as="geometry" />
        </mxCell>
        <mxCell id="SBEox3NDaokPfLYJbtWu-11" value="Upload" style="edgeLabel;html=1;align=center;verticalAlign=middle;resizable=0;points=[];" vertex="1" connectable="0" parent="SBEox3NDaokPfLYJbtWu-5">
          <mxGeometry x="-0.2575" y="-1" relative="1" as="geometry">
            <mxPoint as="offset" />
          </mxGeometry>
        </mxCell>
        <mxCell id="SBEox3NDaokPfLYJbtWu-10" value="" style="group" vertex="1" connectable="0" parent="1">
          <mxGeometry x="50" y="350" width="86" height="90" as="geometry" />
        </mxCell>
        <mxCell id="SBEox3NDaokPfLYJbtWu-1" value="PDF Invoices" style="image;aspect=fixed;html=1;points=[];align=center;fontSize=12;image=img/lib/azure2/general/File.svg;" vertex="1" parent="SBEox3NDaokPfLYJbtWu-10">
          <mxGeometry x="40" width="46" height="56.68" as="geometry" />
        </mxCell>
        <mxCell id="SBEox3NDaokPfLYJbtWu-3" value="Employee" style="shape=umlActor;verticalLabelPosition=bottom;verticalAlign=top;html=1;outlineConnect=0;" vertex="1" parent="SBEox3NDaokPfLYJbtWu-10">
          <mxGeometry y="30" width="30" height="60" as="geometry" />
        </mxCell>
        <mxCell id="SBEox3NDaokPfLYJbtWu-12" value="Function App&lt;div&gt;&lt;br&gt;&lt;/div&gt;" style="image;aspect=fixed;html=1;points=[];align=center;fontSize=12;image=img/lib/azure2/compute/Function_Apps.svg;" vertex="1" parent="1">
          <mxGeometry x="480" y="300" width="68" height="60" as="geometry" />
        </mxCell>
        <mxCell id="SBEox3NDaokPfLYJbtWu-13" value="Resource Group" style="image;sketch=0;aspect=fixed;html=1;points=[];align=center;fontSize=12;image=img/lib/mscae/ResourceGroup.svg;" vertex="1" parent="1">
          <mxGeometry x="20" width="50" height="40" as="geometry" />
        </mxCell>
        <mxCell id="SBEox3NDaokPfLYJbtWu-14" value="Subscription" style="image;aspect=fixed;html=1;points=[];align=center;fontSize=12;image=img/lib/azure2/general/Subscriptions.svg;" vertex="1" parent="1">
          <mxGeometry x="790" y="-51" width="44" height="71" as="geometry" />
        </mxCell>
        <mxCell id="SBEox3NDaokPfLYJbtWu-16" style="edgeStyle=orthogonalEdgeStyle;rounded=0;orthogonalLoop=1;jettySize=auto;html=1;entryX=1.004;entryY=0.433;entryDx=0;entryDy=0;entryPerimeter=0;" edge="1" parent="1" source="SBEox3NDaokPfLYJbtWu-12" target="SBEox3NDaokPfLYJbtWu-2">
          <mxGeometry relative="1" as="geometry" />
        </mxCell>
        <mxCell id="SBEox3NDaokPfLYJbtWu-17" value="Blob Trigger" style="edgeLabel;html=1;align=center;verticalAlign=middle;resizable=0;points=[];" vertex="1" connectable="0" parent="SBEox3NDaokPfLYJbtWu-16">
          <mxGeometry x="0.029" y="1" relative="1" as="geometry">
            <mxPoint as="offset" />
          </mxGeometry>
        </mxCell>
        <mxCell id="SBEox3NDaokPfLYJbtWu-20" value="Cosmos DB" style="image;sketch=0;aspect=fixed;html=1;points=[];align=center;fontSize=12;image=img/lib/mscae/CosmosDB.svg;" vertex="1" parent="1">
          <mxGeometry x="710" y="136" width="50" height="50" as="geometry" />
        </mxCell>
        <mxCell id="SBEox3NDaokPfLYJbtWu-21" style="edgeStyle=orthogonalEdgeStyle;rounded=0;orthogonalLoop=1;jettySize=auto;html=1;entryX=-0.013;entryY=0.587;entryDx=0;entryDy=0;entryPerimeter=0;" edge="1" parent="1" source="SBEox3NDaokPfLYJbtWu-12" target="SBEox3NDaokPfLYJbtWu-20">
          <mxGeometry relative="1" as="geometry" />
        </mxCell>
        <mxCell id="SBEox3NDaokPfLYJbtWu-22" value="Stores parsed information" style="edgeLabel;html=1;align=center;verticalAlign=middle;resizable=0;points=[];" vertex="1" connectable="0" parent="SBEox3NDaokPfLYJbtWu-21">
          <mxGeometry x="-0.0694" y="3" relative="1" as="geometry">
            <mxPoint as="offset" />
          </mxGeometry>
        </mxCell>
      </root>
    </mxGraphModel>
  </diagram>
</mxfile>
